<svg xmlns="http://www.w3.org/2000/svg" xmlns:xlink="http://www.w3.org/1999/xlink" version="1.1" x="0px" y="0px" viewBox="0 0 100 125" enable-background="new 0 0 100 100" xml:space="preserve"><g><path fill="#000000" d="M84.676,12.788V9.327H17.643C10.66,9.327,5,14.978,5,21.962s5.66,12.635,12.643,12.635h67.033v-3.462   h-1.947c-1.116-2.96-1.679-6.066-1.679-9.173c0-3.107,0.563-6.213,1.679-9.173H84.676z M79.068,31.135H17.643   c-2.544,0-4.829-1.021-6.499-2.691c-1.661-1.662-2.683-3.946-2.683-6.482s1.021-4.82,2.683-6.482   c1.67-1.67,3.955-2.691,6.499-2.691h61.425c-0.987,2.977-1.48,6.075-1.48,9.173C77.588,25.06,78.082,28.158,79.068,31.135z"/><path fill="#000000" d="M82.348,62.635c3.496,0,6.663-1.419,8.939-3.704C93.581,56.655,95,53.487,95,50   c0-6.984-5.668-12.635-12.652-12.635H15.315v3.462h1.947c1.116,2.951,1.679,6.066,1.679,9.173c0,3.107-0.563,6.222-1.679,9.173   h-1.947v3.462h13.716v2.769H17.643c-3.488,0-6.664,1.411-8.948,3.695v0.009C6.419,71.384,5,74.551,5,78.038   c0,6.975,5.66,12.635,12.643,12.635h67.033v-3.462h-1.939c-1.125-2.951-1.687-6.066-1.687-9.173c0-3.107,0.563-6.222,1.679-9.173   h1.947v-3.462H48.105v-2.769H82.348z M79.068,68.865c-0.987,2.977-1.48,6.084-1.48,9.173c0,3.098,0.493,6.196,1.48,9.173H17.643   c-2.544,0-4.829-1.03-6.499-2.691c-1.661-1.662-2.683-3.946-2.683-6.482c0-2.536,1.021-4.82,2.683-6.49   c1.67-1.662,3.955-2.683,6.499-2.683h11.388v9.225l2.371-0.943l7.165-2.856l9.537,3.799v-9.225H79.068z M32.493,72.985V56.499   h12.15v16.486l-6.075-2.423L32.493,72.985z M26.86,53.038v3.462h2.172v2.674h-8.1c0.978-2.977,1.471-6.075,1.471-9.173   c0-3.089-0.493-6.196-1.471-9.173h61.416c2.544,0,4.829,1.021,6.499,2.683c1.662,1.67,2.691,3.955,2.691,6.49   s-1.03,4.82-2.691,6.482c-1.67,1.67-3.946,2.691-6.499,2.691H48.105v-2.674h2.163v-3.462H26.86z"/></g><text x="0" y="115" fill="#000000" font-size="5px" font-weight="bold" font-family="'Helvetica Neue', Helvetica, Arial-Unicode, Arial, Sans-serif">Created by Viktor Ostrovsky</text><text x="0" y="120" fill="#000000" font-size="5px" font-weight="bold" font-family="'Helvetica Neue', Helvetica, Arial-Unicode, Arial, Sans-serif">from the Noun Project</text></svg>